<svg width="24" height="27" viewBox="0 0 24 27" fill="none" xmlns="http://www.w3.org/2000/svg">
<path d="M5.33325 12H7.99992V14.6667H5.33325V12ZM5.33325 17.3333H7.99992V20H5.33325V17.3333ZM10.6666 12H13.3333V14.6667H10.6666V12ZM10.6666 17.3333H13.3333V20H10.6666V17.3333ZM15.9999 12H18.6666V14.6667H15.9999V12ZM15.9999 17.3333H18.6666V20H15.9999V17.3333Z" fill="#C3C3C3"/>
<path d="M2.66667 26.6667H21.3333C22.804 26.6667 24 25.4707 24 24V5.33333C24 3.86267 22.804 2.66667 21.3333 2.66667H18.6667V0H16V2.66667H8V0H5.33333V2.66667H2.66667C1.196 2.66667 0 3.86267 0 5.33333V24C0 25.4707 1.196 26.6667 2.66667 26.6667ZM21.3333 8L21.3347 24H2.66667V8H21.3333Z" fill="#C3C3C3"/>
</svg>
